<?xml version="1.0" standalone="no"?>
<!DOCTYPE svg PUBLIC "-//W3C//DTD SVG 20010904//EN"
 "http://www.w3.org/TR/2001/REC-SVG-20010904/DTD/svg10.dtd">
<svg version="1.0" xmlns="http://www.w3.org/2000/svg"
 width="512.000000pt" height="512.000000pt" viewBox="0 0 512.000000 512.000000"
 preserveAspectRatio="xMidYMid meet">

<g transform="translate(0.000000,512.000000) scale(0.100000,-0.100000)"
fill="#FFFFFF" stroke="none">
<path d="M1705 4794 c-115 -30 -924 -304 -970 -327 -115 -61 -200 -171 -230
-298 -22 -97 -22 -3121 0 -3218 30 -127 115 -237 230 -297 33 -18 263 -99 510
-180 l450 -149 95 1 c74 0 108 5 152 23 130 50 239 167 276 293 l17 58 605 0
c655 0 663 1 770 55 102 52 193 174 219 293 7 36 11 265 11 722 l0 670 395 0
395 0 0 120 0 120 -837 0 -838 0 165 165 165 165 -85 85 -85 85 -253 -252
c-288 -287 -312 -315 -312 -368 0 -53 24 -81 312 -368 l253 -252 85 85 85 85
-165 165 -165 165 323 0 323 0 -3 -683 -3 -683 -27 -41 c-15 -22 -44 -51 -65
-64 l-38 -24 -612 -3 -613 -3 0 1621 0 1621 613 -3 612 -3 38 -24 c21 -13 50
-42 65 -64 l27 -41 3 -583 3 -583 119 0 120 0 0 570 c0 383 -4 586 -11 622
-35 164 -173 302 -337 337 -36 7 -247 11 -655 11 l-602 0 -17 58 c-37 127
-148 244 -276 292 -56 22 -193 35 -237 24z m165 -255 c60 -27 79 -45 106 -104
l24 -50 0 -1826 0 -1825 -27 -55 c-21 -40 -40 -61 -76 -83 -90 -55 -90 -55
-594 112 -249 83 -466 160 -482 172 -17 12 -43 42 -58 68 l-28 47 0 1565 0
1565 28 47 c15 26 41 56 57 68 43 31 915 319 965 319 22 0 60 -9 85 -20z"/>
</g>
</svg>
